<svg xmlns="http://www.w3.org/2000/svg" xmlns:xlink="http://www.w3.org/1999/xlink" width="2271.61" height="1521.641" viewBox="0 0 2271.61 1521.641">
  <defs>
    <clipPath id="clip-path">
      <path id="SVGID" d="M1847.628,1354.686c13.8-50.4,20.96-101.971-10.321-136.305-14.127-15.505-39.3-26.3-59.892-33.98-40.175-14.974-81.248-35.1-124.254-41.63-45.341-6.881-95.769-11.122-140.959-1.281-28.7,6.25-55.556,17.819-81.22,30.3-34.451,16.751-58.99,28.013-70.043,62.465-12.263,38.225-19.7,77.488-23.856,116.958-12.153,115.534,3.925,231.36,3.54,346.95-.037,11.363.136,23.175,5.9,33.392,11.376,20.142,42.287,20.423,64.555,20.39l220.177-.328c30.537-.046,53.868,3.178,82.535,8.259,24.126,4.276,44.837-6.223,56.411-25.581,10.957-18.325,11.791-39.727,12.965-60.321a1135.754,1135.754,0,0,1,39.32-237.911C1828.6,1413.964,1839.308,1385.069,1847.628,1354.686Z" fill="#3dc8e8"/>
    </clipPath>
    <clipPath id="clip-path-2">
      <path id="SVGID-2" data-name="SVGID" d="M2375.747,919.728c-12.455-.073-24.545-1.675-33.077-13.893-16.746-23.983-42.308-45.513-70.974-21.126-16.533,14.066-4.1,43-18.33,56.92-12.584,12.308-28.585,10.273-35.021,30.7-9.467,30.053,20.371,56.386,29.95,82.374,8.038,21.808-10.04,30.119-18.163,47.114-6.261,13.1-3.042,27.134,3.782,39.659,12.032,22.086,38.708,39.867,32.528,68.466-5.158,23.868-9.954,45.14,11.106,63.229,14.436,12.4,41.223,23.7,39.182,46.653-.723,8.122-6.344,15.045-7.885,23.052-2.439,12.672,5.769,25.005,15.3,33.7,21.69,19.79,40.74,38.453,56.987,63.351,6.942,10.64,34.736,34.663,23.628,49.208,20.191-26.439,41.53-52.078,59.876-79.873,15.089-22.861,37.835-56.3,22.351-84.453-4.815-8.757-13.771-15.284-16.226-24.974-4.43-17.5,12.76-33.718,19.15-48.6,10.034-23.371,2.67-50.514-15-68.056-8.362-8.3-17.436-17.428-18.665-29.147-1.341-12.8,6.682-24.726,10.321-36.529a182.133,182.133,0,0,0,6.671-33.751c.866-7.981,1.2-16.146-.678-23.952-3.57-14.843-16.937-23.095-26.831-33.628-23.555-25.074-11.174-54.557-21.464-83.7C2415.026,916.317,2394.952,919.84,2375.747,919.728Z" fill="#3dc8e8"/>
    </clipPath>
    <clipPath id="clip-path-3">
      <path id="SVGID-3" data-name="SVGID" d="M2528.709,1102.446c9.045,1.671,18.036,2.183,25.916-5.5,15.467-15.079,36.989-27.158,54.407-5.5,10.046,12.491-2.977,31.759,5.418,43.825,7.424,10.669,19.312,11.409,21.153,27.118,2.708,23.11-22.581,38.082-33.127,55.607-8.849,14.707,3.115,23.237,6.654,36.689,2.728,10.37-1.549,20.1-8.232,28.245-11.785,14.355-33.6,23.56-33.072,45.16.437,18.028.972,34.121-16.808,44.328-12.188,7-33.183,11.486-34.879,28.417-.6,5.992,2.519,11.791,2.529,17.813.015,9.529-7.646,17.339-15.765,22.329-18.472,11.352-34.874,22.253-50.1,38.065-6.509,6.756-30,20.335-23.951,32.424-10.986-21.973-22.916-43.525-32.377-66.226-7.78-18.672-19.651-46.074-4.523-64.354,4.705-5.685,12.1-9.18,15.227-15.869,5.635-12.078-4.589-26.224-7.164-37.906-4.043-18.341,5.055-37.01,20.3-47.289,7.215-4.863,15.06-10.228,17.573-18.558,2.744-9.1-1.424-18.861-2.43-27.926a134.44,134.44,0,0,1-.168-25.406c.477-5.909,1.366-11.878,3.807-17.28,4.644-10.273,15.483-14.408,24.118-20.679,20.556-14.928,15.656-38.028,27.154-57.741C2500.689,1094.536,2514.762,1099.869,2528.709,1102.446Z" fill="#26a8d1"/>
    </clipPath>
  </defs>
  <g id="Group_178" data-name="Group 178" transform="translate(-364.195 -239.18)">
    <path id="Path_225" data-name="Path 225" d="M2197.158,360.954c.985-5.958-6.9-17.976-15.507-17.783-3.422.076-6.77.964-10.186.8-9.1-.444-13.825-7.534-17.335-13.4s-10.5-12.563-19.371-11.074c-12.777,2.144-19.217,19-33.739,6.347-9.506-8.286-10.22-19.871-20.984-27.9-7.389-5.515-19.4-8.782-29.311-5.735-12.928,3.977-17.737,16.8-31.5,19.025-15.248,2.471-26.211-9.13-31.079-17.5-5.906-10.15-8.1-21.125-13.159-31.456-4.682-9.562-14.1-22.371-30.972-22.093-14.267.235-20.552,9.266-27.556,16.436-9.109,9.324-28.036,42.807-49.261,38.77-8.277-1.574-12.41-8.148-19.878-11.092-12.007-4.732-27.311,1.773-34.544,9.956s-10.1,18.058-18.275,25.8a18.906,18.906,0,0,1-8,4.8c-11.418,3.125-22.047-6.486-34.271-7.2-8.438-.493-16.266,3.471-21.115,8.306s-7.494,10.548-11.2,15.85a11.858,11.858,0,0,1-4.074,3.971c-5.363,2.875-12.908.451-19.477-.679-16.232-2.794-34.671,4.657-39.249,15.859Z" fill="#fff"/>
    <path id="Path_226" data-name="Path 226" d="M908.688,360.954c.993-6.007-6.958-18.124-15.634-17.93-3.45.077-6.826.973-10.27.805-9.18-.449-13.939-7.6-17.477-13.515s-10.584-12.666-19.531-11.165c-12.882,2.162-19.374,19.159-34.016,6.4-9.585-8.354-10.3-20.034-21.157-28.135-7.45-5.559-19.564-8.853-29.551-5.781-13.035,4.009-17.883,16.932-31.762,19.181-15.373,2.491-26.426-9.2-31.334-17.64-5.955-10.234-8.167-21.3-13.267-31.714-4.721-9.641-14.216-22.555-31.227-22.275-14.384.236-20.721,9.342-27.783,16.571-9.183,9.4-28.266,43.159-49.666,39.089-8.345-1.587-12.512-8.216-20.041-11.183-12.1-4.771-27.535,1.788-34.828,10.038S510.961,311.9,502.719,319.71a19.044,19.044,0,0,1-8.069,4.841c-11.512,3.15-22.228-6.54-34.553-7.26-8.507-.5-16.4,3.5-21.288,8.375s-7.556,10.634-11.3,15.979a11.955,11.955,0,0,1-4.108,4c-5.406,2.9-13.014.455-19.637-.685-16.365-2.816-34.956,4.7-39.572,15.99Z" fill="#fff"/>
    <path id="Path_227" data-name="Path 227" d="M1681.412,1034.49c-13.846,13.4-29.9,23.767-48.963,28.126-36.308,8.3-70.406-7.681-100.687-26.089-32.36-19.673-64.634-39.6-95.161-62.062-21.825-16.055-44.169-33.116-57.768-57.109-15.767-27.818-16.689-61.26-13.471-92.313,2.2-21.206-7.7-40.237-12.054-60.455-8.481-39.358.2-85.827,36.911-108.4,18.737-11.522,38.341-9.817,58.062-1.342,15.108,6.492,29.2,15.524,45.02,20.018,33.681,9.568,70.213-3.606,103.2-10.393,23.889-4.914,50.012-7.487,73.57.4,26.224,8.775,38.7,27.96,53.017,50.165,12.238,18.979,30.805,33.3,45.594,50.184,19.817,22.623,25.844,51.228,19.172,80.385-9.79,42.784-34.4,79.557-55.766,117.092C1718.426,986.688,1702.473,1014.1,1681.412,1034.49Z" fill="#0b2d4e"/>
    <path id="Path_228" data-name="Path 228" d="M1411.2,1440.7c43.6-67.186,70.729-149.646,32.845-225.5-3.84-7.688-8.458-16.077-16.613-18.789-17.538-5.831-41.329.439-56.579,9.387-52.9,31.039-85.273,89.445-114.992,141.411-30.877,53.989-57.69,110.19-88.719,164.094-12.568,21.832-25.259,43.957-32,68.23-5.9,21.262-6.552,45.606,1.5,66.409,34.831,89.941,130.6-20.23,159.756-53.514A1330.594,1330.594,0,0,0,1411.2,1440.7Z" fill="#26a8d1"/>
    <path id="Path_229" data-name="Path 229" d="M1628.483,1033.364a56.994,56.994,0,0,1-16.27,12.231c-15.889,7.874-34.927,7.49-51.879,2.285s-32.173-14.85-46.655-25.084c-39.173-27.68-87.623-64.3-110.939-106.846-14.372-26.226-25.034-57.188-11.283-85.813,11.815-24.593,35.824-42.761,63.3-45.35,2.247-.212,4.614-.3,6.65.668,2.3,1.1,3.789,3.369,5.117,5.55,9.907,16.27,17.815,33.987,29.927,48.826,13.174,16.141,29.472,28.213,47.235,38.991,28.718,17.427,60.248,30.282,87.261,50.25,19.508,14.421,20.019,46.869,15.27,69.389A73.7,73.7,0,0,1,1628.483,1033.364Z" fill="#061f33"/>
    <g id="Group_155" data-name="Group 155">
      <path id="SVGID-4" data-name="SVGID" d="M1847.628,1354.686c13.8-50.4,20.96-101.971-10.321-136.305-14.127-15.505-39.3-26.3-59.892-33.98-40.175-14.974-81.248-35.1-124.254-41.63-45.341-6.881-95.769-11.122-140.959-1.281-28.7,6.25-55.556,17.819-81.22,30.3-34.451,16.751-58.99,28.013-70.043,62.465-12.263,38.225-19.7,77.488-23.856,116.958-12.153,115.534,3.925,231.36,3.54,346.95-.037,11.363.136,23.175,5.9,33.392,11.376,20.142,42.287,20.423,64.555,20.39l220.177-.328c30.537-.046,53.868,3.178,82.535,8.259,24.126,4.276,44.837-6.223,56.411-25.581,10.957-18.325,11.791-39.727,12.965-60.321a1135.754,1135.754,0,0,1,39.32-237.911C1828.6,1413.964,1839.308,1385.069,1847.628,1354.686Z" fill="#3dc8e8"/>
      <g id="Group_154" data-name="Group 154" clip-path="url(#clip-path)">
        <path id="Path_230" data-name="Path 230" d="M1670.065,1208.066c15.535-25.062,19.063-56.377-1.286-80.522-9.306-11.041-25.763-12.278-39.836-12.53a348.641,348.641,0,0,0-82.442,8.378c-25.712,5.768-51.931,15.537-63.068,40.434-8.274,18.5-5.385,39.9,5.516,56.817a72.9,72.9,0,0,0,44.653,30.931c29.592,6.756,64.23,5.847,92.466-5.52C1643.755,1238.933,1659.622,1224.913,1670.065,1208.066Z" fill="#26a8d1"/>
        <path id="Path_231" data-name="Path 231" d="M1381.8,1747.748c29.541,13.927,61.831,20.947,94.042,26.339,90.146,15.087,182.029,18.222,273.325,13.871,19.52-.93,40.686-2.874,55.084-16.087,10.713-9.832,15.762-24.3,19.353-38.393,12.23-48,12.053-98.174,11.8-147.709q-.294-57.972-.587-115.945c-.068-13.455,8.667-95.356-12.263-94.424a11.838,11.838,0,0,0-6.164,2.579c-10.413,7.449-15.765,19.921-20.63,31.763-15.254,37.125-28.064,96.556-59.817,122.547-33.348,27.3-71.767,40.01-112.181,53.1-70.085,22.7-148.273,32.554-207.633,79.287-9.884,7.786-19.309,16.409-28.464,25.049-8.242,7.779-19.547,15.825-24.478,26.7C1355.506,1733.365,1367.565,1741.037,1381.8,1747.748Z" fill="#26a8d1"/>
      </g>
    </g>
    <path id="Path_232" data-name="Path 232" d="M2005.689,1474.792q16.719,30.159,33.1,60.509c22.075,41.13,63.062,132.515-2.555,155.093-33.059,11.374-51.971.252-73.825-23.834a1392.4,1392.4,0,0,1-209.032-302.843c-20.792-40.79-76-147.083-8.943-171.37a81.449,81.449,0,0,1,65.413,4.783c9.069,4.878,17.11,11.448,24.8,18.3,48.394,43.159,82.856,98.845,113.514,155.324C1967.1,1405.658,1986.5,1440.178,2005.689,1474.792Z" fill="#3dc8e8"/>
    <path id="Path_233" data-name="Path 233" d="M1671.383,1622.313q8.662-1.461,17.353-2.813,42.254-6.552,84.127-15.521c55.255-11.836,110.831-22.017,167.069-27.317q8.94-.844,17.894-1.521c25.211-1.9,51.627-2.555,74.68,9.19s41.36,39.595,35.677,66.484c-3.992,18.891-18.786,33.128-35.208,40.321s-34.491,8.471-52.214,9.667l-172.247,11.628q-42.642,2.853-85.275,5.85c-27.145,1.891-54.7,5.687-81.92,5.7-11.513.007-24.361-2.081-34.021-9.575-13.43-10.418-21.485-32.632-22.756-50-.66-9.02,1.159-19.973,8.234-25.567,3.789-2.995,8.6-3.916,13.23-4.757C1627.83,1630.124,1649.548,1625.993,1671.383,1622.313Z" fill="#3dc8e8"/>
    <g id="Group_156" data-name="Group 156">
      <rect id="Rectangle_29" data-name="Rectangle 29" width="272.249" height="53.301" transform="translate(1176.825 1642.69)" fill="#b8d1ce"/>
      <path id="Path_234" data-name="Path 234" d="M1223.543,1647.862l-68.708-349.8a19.7,19.7,0,0,0-19.332-15.9H678.741a19.531,19.531,0,0,0-15.831,8.123l-.061-.059-21.091,24.937,18.711-4.1,67.649,344.4a19.7,19.7,0,0,0,19.332,15.9h456.763A19.7,19.7,0,0,0,1223.543,1647.862Z" fill="#b8d1ce"/>
      <path id="Path_235" data-name="Path 235" d="M726.566,1695.992h456.762a19.7,19.7,0,0,0,19.331-23.5l-68.709-349.8a19.7,19.7,0,0,0-19.331-15.9H657.856a19.7,19.7,0,0,0-19.331,23.5l68.709,349.8A19.7,19.7,0,0,0,726.566,1695.992Z" fill="#fff"/>
      <path id="Path_236" data-name="Path 236" d="M870.239,1492.727c4.214,23.6,26.757,42.723,50.353,42.723s39.034-19.127,34.484-42.723S927.982,1450,904.723,1450,866.026,1469.132,870.239,1492.727Z" fill="#b8d1ce"/>
      <path id="Path_237" data-name="Path 237" d="M638.149,1323.067" fill="#3f91ac"/>
    </g>
    <path id="Path_238" data-name="Path 238" d="M1606.405,1707.985c-13.572,2.8-24.177,14.719-37.686,18.711-9.638,2.849-19.955,1.326-29.217-2.147-8.516-3.195-17.178-4.9-25.92-7.7-6.815-2.182-16.014-6.777-23.335-5.253-19.185,3.993-38.317,17.647-55.706,26.51-3.911,1.993-8.193,4.045-12.506,3.227s-7.907-6.044-5.454-9.684c-5,4.674-11.627,14.021-19.7,10.4-3.3-1.482-5.292-5.855-3.463-8.977-2.774,3.043-5.687,6.184-9.516,7.7s-8.854.855-11.11-2.589a11.034,11.034,0,0,1-1.478-5.552c-.33-6.658,1.679-13.236,4.456-19.3,13.7-29.891,44.67-52.066,71.024-69.875,4.661-3.15,9.413-6.343,14.793-7.986,4.815-1.471,9.922-1.633,14.958-1.656a298.209,298.209,0,0,1,96.356,15.569c6.7,2.257,14.08.335,20.762-.916,4.947-.927,10.115-1.846,14.946-.434,5.405,1.579,9.6,5.862,12.889,10.43,6.055,8.4,10.684,19.526,9.962,30.079-.549,8.015-1.157,16.661-10.587,18.343-3.822.682-7.756.26-11.618.663C1608.291,1707.641,1607.341,1707.792,1606.405,1707.985Z" fill="#f8a17a"/>
    <path id="Path_239" data-name="Path 239" d="M1612.2,1224.627c19.966-6.4,36.412-18.817,42.574-38.548,5.592-17.907-3.225-38.049-4.795-56.118a342.485,342.485,0,0,1-.562-52.072c1.053-16.031,2.584-32.73.119-48.708-1.4-9.132-6.414-7.57-15.653-11.2s-19.6-3.662-29.64-3.637c-20.555.05-74.134-1.442-86.836,16.595-5.831,8.281-6.29,18.7-6.568,28.556-.334,11.9-2.441,27.315-4.392,43.92-.868,7.392-.332,14.76-1.464,22.1-1.268,8.222-4.389,16.1-7.124,23.978-10.339,29.78-.658,58.1,31.547,71.738C1552.512,1231.015,1585.5,1233.192,1612.2,1224.627Z" fill="#f8a17a"/>
    <path id="Path_240" data-name="Path 240" d="M1649.43,1029.181c-1.4-9.132-6.414-7.57-15.653-11.2s-19.6-3.662-29.64-3.637c-20.554.05-74.133-1.442-86.836,16.595-5.831,8.281-6.29,18.7-6.567,28.556-.335,11.9-2.442,27.315-4.392,43.92-.868,7.392-.332,14.76-1.465,22.1a102.278,102.278,0,0,1-5.13,18.333,108.932,108.932,0,0,0,63.212,3.931c37.444-9.217,65.8-32.521,86.024-62.823.106-2.357.174-4.714.328-7.069C1650.364,1061.858,1651.9,1045.159,1649.43,1029.181Z" fill="#e5785c"/>
    <path id="Path_241" data-name="Path 241" d="M1679.271,911.84c-.164-27.446-3.951-53.481-11.013-75.1-30.468-93.279-146.829-116.323-216.9-49.367-78.138,74.67-48.236,253.2,34.068,315.915a92.345,92.345,0,0,0,78.637,15.491C1644.927,1097.093,1679.781,997.58,1679.271,911.84Z" fill="#f8a17a"/>
    <path id="Path_242" data-name="Path 242" d="M1668.258,836.74c-30.468-93.279-146.829-116.323-216.9-49.367a126.877,126.877,0,0,0-22.408,29.114,93.442,93.442,0,0,0,12.286,8.828,357.511,357.511,0,0,0,94.984,39.766c14.345,3.689,29.445,6.723,41.2,15.733,6.746,5.17,11.83,11.859,15.939,19.28,4.938,8.92,8.467,18.9,11.779,28.559,7.259,21.184,10.451,43.454,13.39,65.56.3,2.294.7,4.78,2.39,6.366,1.6,1.508,3.986,1.816,6.186,1.759,12.9-.331,19.127-12.7,29.176-19.254,6.049-3.945,12.085-7.966,17.826-12.339a319.521,319.521,0,0,0,5.163-58.9C1679.107,884.394,1675.32,858.359,1668.258,836.74Z" fill="#e5785c"/>
    <path id="Path_243" data-name="Path 243" d="M1606.522,896.482c3.742,9.484,5.949,19.833,7.981,29.844,4.453,21.946,4.735,44.442,4.785,66.742.005,2.315.079,4.832,1.545,6.622,1.394,1.7,3.717,2.317,5.906,2.546,12.838,1.343,20.611-10.116,31.424-15.313,11.216-5.39,22.531-10.842,32.325-18.518,27.9-21.861,21.521-57.933,20.639-90.008-.486-17.621-1.01-35.495-6.176-52.349-5.635-18.385-16.612-34.79-29.683-48.895-37.737-40.721-94.689-61.889-149.83-58.415-27.3,1.719-58.1,13.274-77.556,32.933-16.774,16.953,3.665,39.982,17.484,50.956a357.5,357.5,0,0,0,89.032,51.735c13.747,5.516,28.326,10.481,38.817,20.938C1599.234,881.3,1603.409,888.592,1606.522,896.482Z" fill="#0b2d4e"/>
    <path id="Path_244" data-name="Path 244" d="M1663.978,914.145c35.8-19.574,46.819,29.992,40.659,54.659-2.543,10.186-6.567,20.123-12.89,28.505-8.515,11.289-32.876,30.016-46.908,17.666-6.368-5.6-7.024-15.125-7.22-23.606C1637.094,968.631,1639.712,927.413,1663.978,914.145Z" fill="#f8a17a"/>
    <g id="Group_161" data-name="Group 161">
      <g id="Group_158" data-name="Group 158">
        <g id="Group_157" data-name="Group 157">
          <path id="Path_245" data-name="Path 245" d="M2181.306,1487.155c5.034-10.407,4.134-21.346.959-31.267-3.051-10.143-8.5-18.878-14.394-28.428-5.959-9.415-12.043-19.68-15.768-32.039-3.778-12.5-2.7-26.509.775-38.359,7.5-24.174,22.869-41.988,33.454-60.212,5.3-9.222,9.645-18.587,11.36-28.952,1.928-10.266,1.266-21.2-3.776-31.509,8.743,7.651,12.98,20.052,13.552,32.058.547,12.132-2.516,24.442-7.168,35.264-9.189,21.949-22.96,39.77-28.32,59.038-3.04,9.538-3.787,18.779-1.629,28.029,1.8,9.482,6.762,19.054,11.221,29.431,4.733,10.135,9.262,21.847,10.266,33.892C2192.861,1465.969,2190.147,1479.38,2181.306,1487.155Z" fill="#fff"/>
        </g>
      </g>
      <g id="Group_160" data-name="Group 160">
        <g id="Group_159" data-name="Group 159">
          <path id="Rectangle_30" data-name="Rectangle 30" d="M0,0H135.74a0,0,0,0,1,0,0V157.065a37.367,37.367,0,0,1-37.367,37.367H37.367A37.367,37.367,0,0,1,0,157.065V0A0,0,0,0,1,0,0Z" transform="translate(2118.129 1500.443)" fill="#9b87ff"/>
          <path id="Path_246" data-name="Path 246" d="M2263.348,1544.418c-32.55,0-58.937,26.775-58.937,59.8s26.387,59.8,58.937,59.8,58.937-26.775,58.937-59.8S2295.9,1544.418,2263.348,1544.418Zm0,98.279c-20.943,0-37.92-17.226-37.92-38.476s16.977-38.476,37.92-38.476,37.919,17.226,37.919,38.476S2284.29,1642.7,2263.348,1642.7Z" fill="#9b87ff"/>
          <path id="Path_247" data-name="Path 247" d="M2138.426,1621.074h0a7.359,7.359,0,0,1-7.339-7.338v-94.623a7.361,7.361,0,0,1,7.339-7.339h0a7.36,7.36,0,0,1,7.338,7.339v94.623A7.359,7.359,0,0,1,2138.426,1621.074Z" fill="#fff" opacity="0.2"/>
          <path id="Path_248" data-name="Path 248" d="M2222.522,1500.443V1660.5a34.378,34.378,0,0,1-34.378,34.377h31.349a34.377,34.377,0,0,0,34.376-34.377V1500.443Z" fill="#8070f2"/>
        </g>
      </g>
    </g>
    <path id="Path_249" data-name="Path 249" d="M1377.142,814.715c-15.373-43.06-46.2-77.747-28.464-126.048A72.392,72.392,0,0,1,1416,641.2a79.96,79.96,0,0,1,40.777,10.4c14.742,8.441,24.3,22.224,41.441,26.841,40.184,10.824,81.8-19.812,120.208-26.952,38.033-7.068,78.485,5.412,97.09,41.716,7.339,14.322,10.459,30.864,20.108,43.743,16.115,21.51,47.467,28.864,60.221,52.523,20.824,38.629-21.964,94.416-43.737,124.093" fill="none" stroke="#0b2d4e" stroke-miterlimit="10" stroke-width="4"/>
    <g id="Group_162" data-name="Group 162">
      <path id="Path_250" data-name="Path 250" d="M1478.191,716.764a174.829,174.829,0,0,0,18.856-.2c6.259-.472,12.492-1.121,18.7-2.066,12.424-1.781,24.776-4.246,37.35-5.957a187.158,187.158,0,0,1,38.205-1.8c12.765.84,25.885,3.5,37.451,10.071a57.458,57.458,0,0,1,8.147,5.762,59.356,59.356,0,0,1,6.964,7.152,53.906,53.906,0,0,1,5.478,8.394,42.705,42.705,0,0,1,3.541,9.456,36.686,36.686,0,0,1,1.024,10.114,48.014,48.014,0,0,1-1.461,9.838c-.727,3.119-1.5,6.113-1.982,9.057a32.789,32.789,0,0,0-.3,8.78c.571,5.9,2.69,11.686,5.289,17.281,2.6,5.624,5.755,11.047,8.687,16.7A77.968,77.968,0,0,1,1671,837.206a40.4,40.4,0,0,1,1.038,9.526,29.822,29.822,0,0,1-1.7,9.337,34.117,34.117,0,0,0-.941-18.441,78.98,78.98,0,0,0-7.83-16.873c-3.169-5.371-6.629-10.7-9.623-16.37a56.384,56.384,0,0,1-6.411-18.47,37.717,37.717,0,0,1-.029-10.058c.439-3.294,1.2-6.421,1.828-9.453a42.778,42.778,0,0,0,1.129-8.85,31.117,31.117,0,0,0-1.069-8.607c-2.937-11.33-11.348-21.109-21.615-26.954-10.4-6.047-22.622-8.631-34.887-9.622-12.355-1.093-24.778-.441-37.239.789-12.453,1.293-24.952,3.129-37.569,4.242-6.31.526-12.651.834-18.985.813A141.311,141.311,0,0,1,1478.191,716.764Z" fill="#73b8d4"/>
    </g>
    <g id="Group_163" data-name="Group 163">
      <rect id="Rectangle_31" data-name="Rectangle 31" width="556.13" height="337.697" rx="61.282" transform="translate(2398.595 824.052) rotate(180)" fill="#ffc73c"/>
      <path id="Path_251" data-name="Path 251" d="M1915.664,912.943V757.758L2037.2,824.052Z" fill="#ffc73c"/>
      <rect id="Rectangle_32" data-name="Rectangle 32" width="275.303" height="29.464" rx="13.452" transform="translate(1927.173 640.947)" fill="#fff"/>
      <rect id="Rectangle_33" data-name="Rectangle 33" width="90.233" height="29.464" rx="13.452" transform="translate(2223.653 640.947)" fill="#fff"/>
      <rect id="Rectangle_34" data-name="Rectangle 34" width="275.303" height="29.464" rx="13.452" transform="translate(2313.886 603.503) rotate(180)" fill="#fff"/>
      <rect id="Rectangle_35" data-name="Rectangle 35" width="90.233" height="29.464" rx="13.452" transform="translate(2017.406 603.503) rotate(180)" fill="#fff"/>
      <rect id="Rectangle_36" data-name="Rectangle 36" width="193.357" height="29.464" rx="13.452" transform="translate(1927.173 702.115)" fill="#fff"/>
    </g>
    <g id="Group_170" data-name="Group 170">
      <g id="Group_166" data-name="Group 166">
        <path id="SVGID-5" data-name="SVGID" d="M2375.747,919.728c-12.455-.073-24.545-1.675-33.077-13.893-16.746-23.983-42.308-45.513-70.974-21.126-16.533,14.066-4.1,43-18.33,56.92-12.584,12.308-28.585,10.273-35.021,30.7-9.467,30.053,20.371,56.386,29.95,82.374,8.038,21.808-10.04,30.119-18.163,47.114-6.261,13.1-3.042,27.134,3.782,39.659,12.032,22.086,38.708,39.867,32.528,68.466-5.158,23.868-9.954,45.14,11.106,63.229,14.436,12.4,41.223,23.7,39.182,46.653-.723,8.122-6.344,15.045-7.885,23.052-2.439,12.672,5.769,25.005,15.3,33.7,21.69,19.79,40.74,38.453,56.987,63.351,6.942,10.64,34.736,34.663,23.628,49.208,20.191-26.439,41.53-52.078,59.876-79.873,15.089-22.861,37.835-56.3,22.351-84.453-4.815-8.757-13.771-15.284-16.226-24.974-4.43-17.5,12.76-33.718,19.15-48.6,10.034-23.371,2.67-50.514-15-68.056-8.362-8.3-17.436-17.428-18.665-29.147-1.341-12.8,6.682-24.726,10.321-36.529a182.133,182.133,0,0,0,6.671-33.751c.866-7.981,1.2-16.146-.678-23.952-3.57-14.843-16.937-23.095-26.831-33.628-23.555-25.074-11.174-54.557-21.464-83.7C2415.026,916.317,2394.952,919.84,2375.747,919.728Z" fill="#3dc8e8"/>
        <g id="Group_165" data-name="Group 165" clip-path="url(#clip-path-2)">
          <g id="Group_164" data-name="Group 164">
            <path id="Path_252" data-name="Path 252" d="M2407.268,1518.946c8.748-100.248.713-201.292-17.806-300.021-17.666-94.182-40.853-188.688-76.007-277.97a855.536,855.536,0,0,0-39.478-86.483" fill="none" stroke="#26a8d1" stroke-miterlimit="10" stroke-width="5"/>
            <path id="Path_253" data-name="Path 253" d="M2194.834,988.9a604.961,604.961,0,0,1,139.619,70.788c10.964,7.487,17.068,9.777,26.207,19.405" fill="none" stroke="#26a8d1" stroke-miterlimit="10" stroke-width="5"/>
            <path id="Path_254" data-name="Path 254" d="M2384.06,1186.494A413.331,413.331,0,0,0,2227.351,1126" fill="none" stroke="#26a8d1" stroke-miterlimit="10" stroke-width="5"/>
            <path id="Path_255" data-name="Path 255" d="M2402.79,1315.815a353.308,353.308,0,0,0-154.764-77.682" fill="none" stroke="#26a8d1" stroke-miterlimit="10" stroke-width="5"/>
            <path id="Path_256" data-name="Path 256" d="M2358.211,1075.79a439.358,439.358,0,0,1,38.742-153.769" fill="none" stroke="#26a8d1" stroke-miterlimit="10" stroke-width="5"/>
            <path id="Path_257" data-name="Path 257" d="M2383.456,1182.122a387.918,387.918,0,0,1,94.4-126.137" fill="none" stroke="#26a8d1" stroke-miterlimit="10" stroke-width="5"/>
            <path id="Path_258" data-name="Path 258" d="M2405.724,1319.492a145.373,145.373,0,0,1,16.022-42.247c8.724-15.276,20.139-28.825,31.761-42.03q12.555-14.265,25.536-28.147" fill="none" stroke="#26a8d1" stroke-miterlimit="10" stroke-width="5"/>
          </g>
        </g>
      </g>
      <g id="Group_169" data-name="Group 169">
        <path id="SVGID-6" data-name="SVGID" d="M2528.709,1102.446c9.045,1.671,18.036,2.183,25.916-5.5,15.467-15.079,36.989-27.158,54.407-5.5,10.046,12.491-2.977,31.759,5.418,43.825,7.424,10.669,19.312,11.409,21.153,27.118,2.708,23.11-22.581,38.082-33.127,55.607-8.849,14.707,3.115,23.237,6.654,36.689,2.728,10.37-1.549,20.1-8.232,28.245-11.785,14.355-33.6,23.56-33.072,45.16.437,18.028.972,34.121-16.808,44.328-12.188,7-33.183,11.486-34.879,28.417-.6,5.992,2.519,11.791,2.529,17.813.015,9.529-7.646,17.339-15.765,22.329-18.472,11.352-34.874,22.253-50.1,38.065-6.509,6.756-30,20.335-23.951,32.424-10.986-21.973-22.916-43.525-32.377-66.226-7.78-18.672-19.651-46.074-4.523-64.354,4.705-5.685,12.1-9.18,15.227-15.869,5.635-12.078-4.589-26.224-7.164-37.906-4.043-18.341,5.055-37.01,20.3-47.289,7.215-4.863,15.06-10.228,17.573-18.558,2.744-9.1-1.424-18.861-2.43-27.926a134.44,134.44,0,0,1-.168-25.406c.477-5.909,1.366-11.878,3.807-17.28,4.644-10.273,15.483-14.408,24.118-20.679,20.556-14.928,15.656-38.028,27.154-57.741C2500.689,1094.536,2514.762,1099.869,2528.709,1102.446Z" fill="#26a8d1"/>
        <g id="Group_168" data-name="Group 168" clip-path="url(#clip-path-3)">
          <g id="Group_167" data-name="Group 167">
            <path id="Path_259" data-name="Path 259" d="M2422.9,1532.74c7.53-73.928,27.345-146.111,54.443-215.163,25.851-65.872,55.751-131.214,93.609-191.111a631.606,631.606,0,0,1,40.607-57.268" fill="none" stroke="#3dc8e8" stroke-miterlimit="10" stroke-width="5"/>
            <path id="Path_260" data-name="Path 260" d="M2650.364,1177.662a446.771,446.771,0,0,0-111.074,32.022c-8.989,3.914-13.733,4.73-21.7,10.449" fill="none" stroke="#3dc8e8" stroke-miterlimit="10" stroke-width="5"/>
            <path id="Path_261" data-name="Path 261" d="M2485.755,1294.8a305.2,305.2,0,0,1,122.045-22.187" fill="none" stroke="#3dc8e8" stroke-miterlimit="10" stroke-width="5"/>
            <path id="Path_262" data-name="Path 262" d="M2454.269,1386.014a260.909,260.909,0,0,1,123.013-34.927" fill="none" stroke="#3dc8e8" stroke-miterlimit="10" stroke-width="5"/>
            <path id="Path_263" data-name="Path 263" d="M2519.828,1218.077a324.447,324.447,0,0,0-6.819-116.9" fill="none" stroke="#3dc8e8" stroke-miterlimit="10" stroke-width="5"/>
            <path id="Path_264" data-name="Path 264" d="M2486.8,1291.713a286.467,286.467,0,0,0-51.014-104.563" fill="none" stroke="#3dc8e8" stroke-miterlimit="10" stroke-width="5"/>
            <path id="Path_265" data-name="Path 265" d="M2451.631,1388.275a107.337,107.337,0,0,0-5.774-32.862c-4.214-12.289-10.618-23.7-17.221-34.884q-7.132-12.086-14.627-23.952" fill="none" stroke="#3dc8e8" stroke-miterlimit="10" stroke-width="5"/>
          </g>
        </g>
      </g>
      <path id="Path_266" data-name="Path 266" d="M2334.964,1507.136h184.824L2487.363,1692.1H2367.389Z" fill="#efb126"/>
      <rect id="Rectangle_37" data-name="Rectangle 37" width="230.079" height="51.917" transform="translate(2542.415 1507.136) rotate(180)" fill="#ffc73c"/>
      <path id="Path_267" data-name="Path 267" d="M2515.488,1531.664H2339.264l-4.3-24.528h184.824Z" fill="#231f20" opacity="0.1"/>
    </g>
    <path id="Path_268" data-name="Path 268" d="M2579.637,1760.654H621.282c-19.95,0-36.122-15.417-36.122-34.435h0c0-19.019,16.172-34.436,36.122-34.436H2579.637c19.949,0,36.122,15.417,36.122,34.436h0C2615.759,1745.237,2599.586,1760.654,2579.637,1760.654Z" fill="#dbcdfe"/>
    <g id="Group_171" data-name="Group 171">
      <path id="Path_269" data-name="Path 269" d="M1051.368,532.066H978.21a56.717,56.717,0,0,0-56.551,56.551h0a56.594,56.594,0,0,0,24.516,46.522v39.8l40.706-29.772h64.487a56.717,56.717,0,0,0,56.551-56.551h0A56.717,56.717,0,0,0,1051.368,532.066Z" fill="#dbcdfe"/>
      <circle id="Ellipse_11" data-name="Ellipse 11" cx="8.582" cy="8.582" r="8.582" transform="translate(961.678 588.617) rotate(-45)" fill="#fff"/>
      <circle id="Ellipse_12" data-name="Ellipse 12" cx="8.582" cy="8.582" r="8.582" transform="translate(1003.577 583.973) rotate(-22.5)" fill="#fff"/>
      <circle id="Ellipse_13" data-name="Ellipse 13" cx="8.582" cy="8.582" r="8.582" transform="translate(1044.552 583.973) rotate(-22.5)" fill="#fff"/>
    </g>
    <path id="Path_270" data-name="Path 270" d="M1982.938,1051.663c-11.28-19.3-39.753-28.994-67.274,3.172-27.521-32.166-55.993-22.474-67.274-3.172-27.794,47.56,67.274,103.528,67.274,103.528S2010.732,1099.223,1982.938,1051.663Z" fill="#dbcdfe"/>
    <g id="Group_172" data-name="Group 172">
      <rect id="Rectangle_38" data-name="Rectangle 38" width="168.616" height="112.503" rx="17.936" transform="translate(1360.04 430.103)" fill="#dbcdfe"/>
      <path id="Path_271" data-name="Path 271" d="M1362.763,433.715l73.824,71.583a11.331,11.331,0,0,0,15.522,0l73.824-71.583" fill="none" stroke="#fff" stroke-miterlimit="10" stroke-width="4"/>
      <line id="Line_3" data-name="Line 3" y1="46.529" x2="60.574" transform="translate(1362.763 492.45)" fill="none" stroke="#fff" stroke-miterlimit="10" stroke-width="4"/>
      <line id="Line_4" data-name="Line 4" x1="60.574" y1="46.529" transform="translate(1465.359 492.45)" fill="none" stroke="#fff" stroke-miterlimit="10" stroke-width="4"/>
    </g>
    <g id="Group_177" data-name="Group 177">
      <g id="Group_173" data-name="Group 173">
        <rect id="Rectangle_39" data-name="Rectangle 39" width="194.777" height="135.288" rx="17.936" transform="translate(1047.101 846.335)" fill="#dbcdfe"/>
      </g>
      <g id="Group_174" data-name="Group 174">
        <path id="Path_272" data-name="Path 272" d="M1144.489,1024.37l34.151-46.06h-68.3Z" fill="#dbcdfe"/>
      </g>
      <g id="Group_175" data-name="Group 175">
        <path id="Path_273" data-name="Path 273" d="M1195.733,931.375h-8.426V908.306l.082-3.791.136-4.145q-2.1,2.1-2.917,2.754l-4.581,3.682-4.064-5.072,12.844-10.226h6.926Z" fill="#fff"/>
      </g>
      <g id="Group_176" data-name="Group 176">
        <path id="Path_274" data-name="Path 274" d="M1133.27,890.167h-27.643a21.43,21.43,0,0,0-21.368,21.368h0a21.383,21.383,0,0,0,9.263,17.578v15.039L1108.9,932.9h24.367a21.431,21.431,0,0,0,21.368-21.368h0A21.431,21.431,0,0,0,1133.27,890.167Z" fill="#fff"/>
      </g>
    </g>
  </g>
</svg>
